<?xml version="1.0" encoding="utf-8"?>
<!-- Generator: Adobe Illustrator 21.1.0, SVG Export Plug-In . SVG Version: 6.00 Build 0)  -->
<svg version="1.1" id="Calque_1" xmlns="http://www.w3.org/2000/svg" xmlns:xlink="http://www.w3.org/1999/xlink" x="0px" y="0px"
	 viewBox="0 0 566.9 364.2" style="enable-background:new 0 0 566.9 364.2;" xml:space="preserve">
<style type="text/css">
	.st0{fill:#E0E0E0;}
	.st1{fill:#D5D5D5;}
	.st2{fill:#0227B7;}
	.st3{fill:#FFFFFF;}
	.st4{fill:#2E2E2E;}
</style>
<g>
	<g>
		<polygon class="st0" points="448.7,351.2 18.8,364.2 0,99.3 448.5,82 		"/>
		<polygon class="st1" points="544.2,258.9 87.1,235.3 95.1,0 566.9,27.1 		"/>
		<polygon class="st2" points="508.8,286.6 42.2,307.4 23.6,35.4 491.7,2.4 		"/>
		<g>
			<g>
				<rect x="55.7" y="49.6" class="st3" width="462.8" height="282.8"/>
			</g>
			<g>
				<path class="st2" d="M213.4,238.4l-11-17.6c0,0,0.3,17.2,0.3,17.6h-4.6v-25.1h4.2l11.1,17.7c0,0-0.5-17.2-0.6-17.7h4.6v25.1
					H213.4z"/>
				<path class="st2" d="M237.7,212.6c7.7,0,12,6.3,12,13.1c0,5.7-3.1,13.3-12.1,13.3c-7.4,0-12-6.1-12-13.2
					C225.7,218.5,230.5,212.6,237.7,212.6z M237.8,234.6c3.7,0,7.3-2.9,7.3-8.6c0-4.5-2.3-9.1-7.3-9.1c-4.1,0-7.2,3.2-7.2,8.8
					C230.5,229.6,232.4,234.6,237.8,234.6z"/>
				<path class="st2" d="M268.1,213.3c4.9,0,8.3,3.2,8.3,8c0,2.4-1,5.6-4.9,6.9l5.6,10.2h-5.4l-4.9-9.3h-4.2v9.3h-4.7v-25.1H268.1z
					 M262.5,225.1h3.6c3.4,0,5.5-1,5.5-4c0-2.7-1.9-3.9-4.9-3.9h-4.3L262.5,225.1L262.5,225.1z"/>
				<path class="st2" d="M295.3,213.3c5.9,0,11.5,3.8,11.5,12.8c0,8-4.4,12.3-11.8,12.3h-9.5v-25.1L295.3,213.3L295.3,213.3z
					 M290.2,234.2h2.9c5.4,0,8.7-1,8.7-8.1c0-6.2-3.1-8.5-7.7-8.5h-3.9V234.2z"/>
				<path class="st2" d="M314.6,238.4v-25.1h4.6v25.1H314.6z"/>
				<path class="st2" d="M349.6,231.4c-0.8,2.1-3.6,7.7-10.9,7.7c-5.9,0-11.7-4.1-11.7-13.5c0-5.6,3.2-13,11.9-13
					c6.5,0,9.1,4.2,10.2,7.8l-4.7,1.2c-0.3-2.7-2.6-4.7-5.4-4.7c-4.1,0-7,3.1-7,8.7c0,3.4,1.4,8.9,7,8.9c3.2,0,5.3-2.5,6.1-5.1
					L349.6,231.4z"/>
				<path class="st2" d="M372,220.6c-0.8-1.3-2.6-3.7-6.5-3.7c-1.1,0-4.7,0.4-4.7,3.1c0,2,1.9,2.4,4.6,3l2.6,0.6
					c3.9,0.9,8.1,2.4,8.1,7.4c0,6.2-6.2,8.1-10.7,8.1c-4.2,0-8.8-1.5-11-5.4l4-2.7c1.1,1.6,3.2,3.8,7.8,3.8c2.7,0,4.8-1.1,4.8-3.3
					c0-2.1-1.7-2.5-4.8-3.2l-3.2-0.7c-3.2-0.7-7.2-2.1-7.2-7c0-4.4,3.6-7.8,9.9-7.8c2.2,0,6.7,0.4,10.1,5.1L372,220.6z"/>
			</g>
			<g>
				<path class="st4" d="M160.9,162.3c0-3.7,1.5-6.7,4.6-9.2s7.2-3.7,12.3-3.7c5.1,0,9.2,1.2,12.3,3.7c3.1,2.5,4.7,5.8,4.9,10h-11
					c-0.3-3.5-2.5-5.3-6.5-5.3c-2,0-3.6,0.4-4.7,1.2c-1.1,0.8-1.7,1.9-1.7,3.4c0,1.4,0.8,2.5,2.5,3.3s3.7,1.4,6.1,1.9s4.8,1,7.1,1.7
					c2.4,0.7,4.4,1.9,6.1,3.7c1.7,1.8,2.5,4.1,2.5,7c0,3.8-1.6,6.9-4.8,9.3c-3.2,2.4-7.3,3.6-12.3,3.6s-9.1-1.2-12.3-3.5
					c-3.2-2.4-4.9-5.7-5.3-10.2h11c0.4,3.6,2.7,5.3,6.8,5.3c2,0,3.6-0.4,4.8-1.3c1.2-0.9,1.8-2.1,1.8-3.5s-0.8-2.6-2.5-3.4
					s-3.7-1.5-6.1-1.9c-2.4-0.5-4.8-1-7.1-1.7c-2.4-0.7-4.4-1.8-6.1-3.5C161.7,167.2,160.9,165,160.9,162.3z"/>
				<path class="st4" d="M213.5,150v6.3c2.7-4.6,7.1-6.9,13.1-6.9c3.2,0,6.1,0.7,8.6,2.2s4.5,3.6,5.8,6.3c1.5-2.6,3.5-4.7,6-6.2
					c2.6-1.5,5.4-2.3,8.6-2.3c5,0,9.1,1.6,12.1,4.7c3.1,3.1,4.6,7.6,4.6,13.2v24.8h-10.7v-23.3c0-3.3-0.8-5.8-2.5-7.6
					c-1.7-1.7-4-2.6-6.8-2.6c-2.9,0-5.2,0.9-6.9,2.6c-1.7,1.8-2.5,4.3-2.5,7.6v23.3h-10.7v-23.3c0-3.3-0.8-5.8-2.5-7.6
					c-1.7-1.7-4-2.6-6.8-2.6c-2.9,0-5.2,0.9-6.9,2.6c-1.7,1.8-2.6,4.3-2.6,7.6v23.3h-10.7v-42.2h10.8V150z"/>
				<path class="st4" d="M284.8,186.7c-4.1-4-6.2-9.3-6.2-15.8s2.1-11.7,6.2-15.7c4.2-4,9.3-5.9,15.5-5.9s11.3,2,15.5,5.9
					c4.2,4,6.2,9.2,6.2,15.7s-2.1,11.7-6.3,15.8c-4.2,4-9.4,6-15.6,6C294,192.7,288.9,190.7,284.8,186.7z M300.2,183.7
					c3,0,5.6-1.1,7.7-3.3c2.2-2.2,3.2-5.3,3.2-9.4c0-4-1.1-7.1-3.2-9.3c-2.1-2.2-4.7-3.3-7.7-3.3s-5.6,1.1-7.6,3.3
					c-2.1,2.2-3.1,5.3-3.1,9.4s1,7.2,3.1,9.4C294.7,182.6,297.2,183.7,300.2,183.7z"/>
				<path class="st4" d="M143.1,150v3.3c-3.4-2.9-7.2-3.9-11.2-3.9c-6.2,0-11.3,2-15.5,5.9c-4.2,4-6.2,9.2-6.2,15.7s2,11.7,6.2,15.8
					c4.1,4,9.3,6,15.4,6c3.9,0,8.2-1.7,11.4-4v3.4h10.7V150L143.1,150L143.1,150z M139.4,180.4c-2.2,2.2-4.7,3.3-7.7,3.3
					s-5.5-1.1-7.6-3.3c-2.1-2.2-3.1-5.3-3.1-9.4s1-7.2,3.1-9.4c2.1-2.2,4.6-3.3,7.6-3.3s5.6,1.1,7.7,3.3c2.1,2.2,3.2,5.3,3.2,9.3
					C142.6,175,141.6,178.2,139.4,180.4z"/>
				<path class="st4" d="M358.8,135.6v17.3c-3.1-2.3-7.3-3.5-11.3-3.5c-6.2,0-11.3,2-15.5,5.9c-4.2,4-6.2,9.2-6.2,15.7
					s2.1,11.7,6.2,15.8c4.1,4,9.3,6,15.4,6c3.9,0,8.2-1.7,11.4-4v3.4h10.7v-56.5L358.8,135.6L358.8,135.6z M355.2,180.4
					c-2.2,2.2-4.7,3.3-7.7,3.3s-5.5-1.1-7.6-3.3c-2.1-2.2-3.1-5.3-3.1-9.4s1-7.2,3.1-9.4c2.1-2.2,4.6-3.3,7.6-3.3s5.6,1.1,7.7,3.3
					c2.1,2.2,3.2,5.3,3.2,9.3C358.4,175,357.3,178.2,355.2,180.4z"/>
				<path class="st4" d="M396.9,192.7c-6.1,0-11.1-2-15-6s-5.8-9.2-5.8-15.8c0-6.5,1.9-11.8,5.8-15.7c3.9-3.9,8.9-5.9,15.1-5.9
					c6.2,0,11.2,1.9,15.2,5.7c4,3.8,5.9,8.9,5.9,15.3c0,1.5-0.1,2.8-0.3,4.1h-30.7c0.3,2.7,1.3,4.9,3,6.6c1.8,1.7,4,2.5,6.8,2.5
					c3.7,0,6.4-1.5,8.2-4.6c0,0,5.3,3.9,8.2,6.4c-1,1.3-2.3,2.4-3.7,3.4C406.1,191.5,401.8,192.7,396.9,192.7z M405.1,179.1
					c7.2,5.4,6.3,4.8,8.2,6.4 M403.9,160.9c-1.9-1.7-4.2-2.5-6.9-2.5s-4.9,0.8-6.7,2.5s-2.9,3.9-3.2,6.7H407
					C406.8,164.8,405.8,162.6,403.9,160.9z"/>
				<path class="st4" d="M443,192.7c-6.1,0-11.1-2-15-6s-5.8-9.2-5.8-15.8c0-6.5,1.9-11.8,5.8-15.7c3.9-3.9,8.9-5.9,15.1-5.9
					c6.2,0,11.2,1.9,15.2,5.7c4,3.8,5.9,8.9,5.9,15.3c0,1.5-0.1,2.8-0.3,4.1h-30.7c0.3,2.7,1.3,4.9,3,6.6c1.8,1.7,4,2.5,6.8,2.5
					c3.7,0,6.4-1.5,8.2-4.6c0,0,5.3,3.9,8.2,6.4c-1,1.3-2.3,2.4-3.7,3.4C452.2,191.5,448,192.7,443,192.7z M451.2,179.1
					c7.2,5.4,6.3,4.8,8.2,6.4 M450,160.9c-1.9-1.7-4.2-2.5-6.9-2.5s-4.9,0.8-6.7,2.5s-2.9,3.9-3.2,6.7h19.9
					C453,164.8,451.9,162.6,450,160.9z"/>
			</g>
		</g>
	</g>
</g>
</svg>
