<svg xmlns="http://www.w3.org/2000/svg" viewBox="0 0 331.8 428.4"><style>.st0{fill:#204268}.st1{fill:url(#SVGID_1_)}.st2{fill:#1d1d1b}.st3{fill:#7a8a8d}.st4{fill:none;stroke:#7a8a8d;stroke-width:.9386}.st5{fill:#becacf}.st6{fill:#a6bac4}.st7{fill:#fff}.st8{fill:#7d922e}.st9{fill:#d8dee3}.st10{fill:#d3dde3}.st11{fill:#a75d24}.st12{fill:none;stroke:#a75d24;stroke-width:.9386;stroke-linecap:round;stroke-linejoin:round}.st13{fill:#d19445}.st14{fill:none;stroke:#d19445;stroke-width:.9386;stroke-linecap:round;stroke-linejoin:round}.st15{fill:#80512c}.st16{fill:none;stroke:#80512c;stroke-width:.9386;stroke-linecap:round;stroke-linejoin:round}.st17{fill:#daa045}.st18{fill:#f4d463}.st19{opacity:.5}.st20{fill:#003869}.st21,.st22{opacity:.3;fill:#fff;enable-background:new}.st22{opacity:.5}</style><path class="st0" d="M22 0S0 0 0 22v384.4s0 22 22 22h287.6s22 0 22-22V22s0-22-22-22H22z"/><linearGradient id="SVGID_1_" gradientUnits="userSpaceOnUse" x1="163.75" y1="143.6" x2="163.75" y2="419.6" gradientTransform="matrix(1 0 0 -1 0 431)"><stop offset="0" stop-color="#ffdb2c"/><stop offset=".195" stop-color="#fccc2d"/><stop offset=".72" stop-color="#f6a82e"/><stop offset="1" stop-color="#f49a2f"/></linearGradient><path class="st1" d="M33.9 11.4s-22 0-22 22v232s0 22 22 22h259.7s22 0 22-22v-232s0-22-22-22H33.9z"/><path class="st2" d="M86.1 400.9c0-1.9 1.9-3.5 4.2-3.5 2.3 0 4.2 1.5 4.2 3.5 0 1.9-1.9 3.5-4.2 3.5s-4.2-1.6-4.2-3.5m-32.9-.7c0-1.9 1.9-3.5 4.2-3.5 2.3 0 4.2 1.6 4.2 3.5s-1.9 3.5-4.2 3.5c-2.4 0-4.2-1.6-4.2-3.5"/><path class="st3" d="M256.8 367.1l-5.7 11.5-1.1-.6c.1-.4.3-.8.3-1.3 0-1.3-5.7-3.6-10.9-3.6-5.9 0-12.8 2.8-12.8 9.5s6.9 9.5 12.8 9.5c6.3 0 11.6-3.8 11.6-4.9 0-.6 0-.9-.1-1.4l.9-.6 7.5 10.8-1 .6c-.4-.5-.8-.9-1.3-.9-.8 0-7.6 4.7-17.7 4.7-11.5 0-23-4.9-23-17.8s11.5-17.8 23-17.8c3.5 0 6.9.7 9.5 1.3 2.7.6 4.8 1.3 5.7 1.3.5 0 .9-.4 1.2-.7l1.1.4z"/><path class="st4" d="M256.8 367.1l-5.7 11.5-1.1-.6c.1-.4.3-.8.3-1.3 0-1.3-5.7-3.6-10.9-3.6-5.9 0-12.8 2.8-12.8 9.5s6.9 9.5 12.8 9.5c6.3 0 11.6-3.8 11.6-4.9 0-.6 0-.9-.1-1.4l.9-.6 7.5 10.8-1 .6c-.4-.5-.8-.9-1.3-.9-.8 0-7.6 4.7-17.7 4.7-11.5 0-23-4.9-23-17.8s11.5-17.8 23-17.8c3.5 0 6.9.7 9.5 1.3 2.7.6 4.8 1.3 5.7 1.3.5 0 .9-.4 1.2-.7l1.1.4z"/><path class="st3" d="M132.6 367.7c0-1.1-.9-1.3-2.1-1.4v-.9h14.7v.9c-1.1.1-2.1.3-2.1 1.4V392h21.6c.6 0 1.4-.3 1.4-2h.9v12h-.9c0-1.7-.8-2-1.4-2h-34.3v-1c1.2-.1 2.1-.3 2.1-1.4v-29.9h.1z"/><path class="st4" d="M132.6 367.7c0-1.1-.9-1.3-2.1-1.4v-.9h14.7v.9c-1.1.1-2.1.3-2.1 1.4V392h21.6c.6 0 1.4-.3 1.4-2h.9v12h-.9c0-1.7-.8-2-1.4-2h-34.3v-1c1.2-.1 2.1-.3 2.1-1.4v-29.9h.1z"/><path class="st3" d="M193.1 351.1h10.1v9.2h-10.1v-9.2zm-15.5 0h10.1v9.2h-10.1v-9.2zm-5.6 16.6c0-1.1-1-1.3-2.3-1.4v-.9h14.2v.9c-.5.1-1.3.3-1.3 1.4v19.2c0 4 3.3 5.6 7.9 5.6 4.6 0 7.9-1.6 7.9-5.6v-19.2c0-1.1-.9-1.3-1.3-1.4v-.9h14.2v.9c-1.3.1-2.3.3-2.3 1.4v17.4c0 8.4-4.6 15.5-18.4 15.5-13.9 0-18.4-7.1-18.4-15.5v-17.4h-.2z"/><path class="st4" d="M193.1 351.1h10.1v9.2h-10.1v-9.2zm-15.5 0h10.1v9.2h-10.1v-9.2zm-5.6 16.6c0-1.1-1-1.3-2.3-1.4v-.9h14.2v.9c-.5.1-1.3.3-1.3 1.4v19.2c0 4 3.3 5.6 7.9 5.6 4.6 0 7.9-1.6 7.9-5.6v-19.2c0-1.1-.9-1.3-1.3-1.4v-.9h14.2v.9c-1.3.1-2.3.3-2.3 1.4v17.4c0 8.4-4.6 15.5-18.4 15.5-13.9 0-18.4-7.1-18.4-15.5v-17.4h-.2z"/><path class="st3" d="M289.9 400v-.9c.7 0 2.2-.2 2.2-1.3 0-.9-7.3-11.1-8.5-13.2l-6.9 6.6v6.5c0 1.2 1.2 1.3 2.2 1.4v.9h-14.7v-.9c.9.1 2-.3 2-1.4v-30c0-1.1-1-1.5-2-1.4v-.9H279v.9c-1 .1-2.2.2-2.2 1.4v14.5c4.7-4.1 15.8-13.6 15.8-14.5 0-1.2-1.2-1.3-2-1.4v-.9H306v.9c-3 .4-11 9-14.9 12.2l13.1 19.4c.6.9 1.1 1.1 1.8 1.2v.9h-16.1z"/><path class="st4" d="M289.9 400v-.9c.7 0 2.2-.2 2.2-1.3 0-.9-7.3-11.1-8.5-13.2l-6.9 6.6v6.5c0 1.2 1.2 1.3 2.2 1.4v.9h-14.7v-.9c.9.1 2-.3 2-1.4v-30c0-1.1-1-1.5-2-1.4v-.9H279v.9c-1 .1-2.2.2-2.2 1.4v14.5c4.7-4.1 15.8-13.6 15.8-14.5 0-1.2-1.2-1.3-2-1.4v-.9H306v.9c-3 .4-11 9-14.9 12.2l13.1 19.4c.6.9 1.1 1.1 1.8 1.2v.9h-16.1z"/><path class="st3" d="M145.7 340l3.1-3.2v-.9l-6.2-.7.2 3.2 2.9 1.6z"/><path class="st3" d="M176 334.4c0 1.1.9 1.3 2.2 1.4v1h-14.6v-1c.8 0 2.3-.1 2.3-1 0-1.8-10.1-10.8-19-21.2l-.2.2v20.7c0 1.1.9 1.3 2 1.4v1h-13.5v-1c1-.1 2-.3 2-1.4v-30c0-1.1-.9-1.3-2.1-1.4v-1H154v1c-.7.1-1.7.3-1.7 1.4 0 .6 7.6 8.4 14.3 15.5v-15.5c0-1.1-.9-1.3-2.2-1.4v-1h13.9v1c-1.3.1-2.2.3-2.2 1.4v29.9h-.1z"/><path class="st4" d="M176 334.4c0 1.1.9 1.3 2.2 1.4v1h-14.6v-1c.8 0 2.3-.1 2.3-1 0-1.8-10.1-10.8-19-21.2l-.2.2v20.7c0 1.1.9 1.3 2 1.4v1h-13.5v-1c1-.1 2-.3 2-1.4v-30c0-1.1-.9-1.3-2.1-1.4v-1H154v1c-.7.1-1.7.3-1.7 1.4 0 .6 7.6 8.4 14.3 15.5v-15.5c0-1.1-.9-1.3-2.2-1.4v-1h13.9v1c-1.3.1-2.2.3-2.2 1.4v29.9h-.1z"/><path class="st5" d="M135.2 302.1l-3.2 3.2h18.8l3.2-3.2h-18.8z"/><path class="st6" d="M150.8 305.3v.9l3.2-3.2v-.9l-3.2 3.2z"/><path class="st3" d="M175.1 340l3.1-3.2v-.9l-5.8-.2-.3 3.1 3 1.2zm-46.5 0l3.2-3.2v-.9l-7.2-.4 4 4.5zm-48.7-5.6c0 .7.2 1.3 2.2 1.4v1H65.9v-1c2-.2 2.2-.7 2.2-1.4v-14.6H47.6v14.6c0 .7.2 1.3 2.2 1.4v1H33.6v-1c2-.2 2.2-.7 2.2-1.4v-36.8c0-.7-.2-1.3-2.2-1.4v-.9h16.2v.9c-2 .2-2.2.7-2.2 1.4v12.5h20.5v-12.5c0-.7-.2-1.3-2.2-1.4v-.9h16.2v.9c-2 .2-2.2.7-2.2 1.4v36.8z"/><path class="st4" d="M79.9 334.4c0 .7.2 1.3 2.2 1.4v1H65.9v-1c2-.2 2.2-.7 2.2-1.4v-14.6H47.6v14.6c0 .7.2 1.3 2.2 1.4v1H33.6v-1c2-.2 2.2-.7 2.2-1.4v-36.8c0-.7-.2-1.3-2.2-1.4v-.9h16.2v.9c-2 .2-2.2.7-2.2 1.4v12.5h20.5v-12.5c0-.7-.2-1.3-2.2-1.4v-.9h16.2v.9c-2 .2-2.2.7-2.2 1.4v36.8z"/><path class="st3" d="M114.7 324.1l-6.6-13.8-6.5 13.8h13.1zm4 12.7v-.9c.3 0 1 0 1-.7 0-.9-1.7-3.9-2.3-5.4H99.1c-.5 1.4-2.3 4.5-2.3 5.4 0 .7.7.7 1 .7v.9H86.1v-.9c.6 0 1.3-.2 1.6-.8 6.3-14.8 13.6-30.1 13.6-31.2 0-.6-.2-.7-1-.8v-.9h16.5v.9c-.8.1-1 .2-1 .8 0 .9 11 23.1 14.5 31.2.2.6.9.8 1.6.8v.9h-13.2z"/><path class="st4" d="M114.7 324.1l-6.6-13.8-6.5 13.8h13.1zm4 12.7v-.9c.3 0 1 0 1-.7 0-.9-1.7-3.9-2.3-5.4H99.1c-.5 1.4-2.3 4.5-2.3 5.4 0 .7.7.7 1 .7v.9H86.1v-.9c.6 0 1.3-.2 1.6-.8 6.3-14.8 13.6-30.1 13.6-31.2 0-.6-.2-.7-1-.8v-.9h16.5v.9c-.8.1-1 .2-1 .8 0 .9 11 23.1 14.5 31.2.2.6.9.8 1.6.8v.9h-13.2z"/><path class="st3" d="M187.2 324.7l1 .5c0 .2-.1.5-.1.9 0 2.1 9.1 4.1 15.5 4.1 2 0 7.2-.3 7.2-3.4 0-6.2-25.8-.2-25.8-13.4 0-4.9 4.6-11.8 17.5-11.8 7.5 0 13.9 2.1 15.7 2.1.9 0 1.3-.6 1.7-.9l.9.3-4.7 9.9-1-.5c0-.2.1-.6.1-.9 0-.8-5.6-2.9-10.9-2.9-2 0-9 0-9 3.5 0 5.6 25.8-.2 25.8 13.6 0 6.2-5.3 11.5-17.3 11.5-7.6 0-16.4-2.8-17-2.8-.7 0-1.3.6-1.8 1.1l-.9-.2 3.1-10.7z"/><path class="st4" d="M187.2 324.7l1 .5c0 .2-.1.5-.1.9 0 2.1 9.1 4.1 15.5 4.1 2 0 7.2-.3 7.2-3.4 0-6.2-25.8-.2-25.8-13.4 0-4.9 4.6-11.8 17.5-11.8 7.5 0 13.9 2.1 15.7 2.1.9 0 1.3-.6 1.7-.9l.9.3-4.7 9.9-1-.5c0-.2.1-.6.1-.9 0-.8-5.6-2.9-10.9-2.9-2 0-9 0-9 3.5 0 5.6 25.8-.2 25.8 13.6 0 6.2-5.3 11.5-17.3 11.5-7.6 0-16.4-2.8-17-2.8-.7 0-1.3.6-1.8 1.1l-.9-.2 3.1-10.7z"/><path class="st3" d="M257.5 301.8v.9c-1.6.1-2.5.3-2.5 1.4v30c0 1.1.9 1.3 2.5 1.4v.9h-15.6v-.9c1.6-.1 2.5-.3 2.5-1.4v-30c0-1.1-.9-1.3-2.5-1.4v-.9h15.6z"/><path class="st4" d="M257.5 301.8v.9c-1.6.1-2.5.3-2.5 1.4v30c0 1.1.9 1.3 2.5 1.4v.9h-15.6v-.9c1.6-.1 2.5-.3 2.5-1.4v-30c0-1.1-.9-1.3-2.5-1.4v-.9h15.6z"/><path class="st3" d="M273.6 334.2c0 1.1.9 1.3 2.2 1.4v.9h-12.4v-.9c.9-.1 1.8-.3 1.8-1.4v-30c0-1.1-.9-1.3-1.8-1.4v-.9h17.1v.9c-.8.1-1.5.2-1.5.6 0 .8 5.8 12.2 6.5 13.8 2.5-5.1 6.9-12.8 6.9-13.8 0-.5-.7-.6-1.5-.6v-.9h17.2v.9c-.7.1-1.7.3-1.7 1.4v30c0 1.1.9 1.3 1.7 1.4v.9H295v-.9c1.1-.1 2.1-.3 2.1-1.4v-22.4h-.2l-11.7 22.8-11.3-22.8h-.2l-.1 22.4z"/><path class="st4" d="M273.6 334.2c0 1.1.9 1.3 2.2 1.4v.9h-12.4v-.9c.9-.1 1.8-.3 1.8-1.4v-30c0-1.1-.9-1.3-1.8-1.4v-.9h17.1v.9c-.8.1-1.5.2-1.5.6 0 .8 5.8 12.2 6.5 13.8 2.5-5.1 6.9-12.8 6.9-13.8 0-.5-.7-.6-1.5-.6v-.9h17.2v.9c-.7.1-1.7.3-1.7 1.4v30c0 1.1.9 1.3 1.7 1.4v.9H295v-.9c1.1-.1 2.1-.3 2.1-1.4v-22.4h-.2l-11.7 22.8-11.3-22.8h-.2l-.1 22.4z"/><path class="st7" d="M172.9 337.6c0 1.1.9 1.3 2.2 1.4v.9h-14.6v-.9c.8 0 2.3-.1 2.3-1 0-1.8-10.1-10.8-19-21.2l-.2.2v20.7c0 1.1.9 1.3 2.1 1.4v.9h-13.5v-.9c1-.1 2-.3 2-1.4v-30c0-1.1-.9-1.3-2.1-1.4v-1h18.8v1c-.7.1-1.7.3-1.7 1.4 0 .6 7.6 8.4 14.3 15.5v-15.5c0-1.1-.9-1.3-2.2-1.4v-1h13.9v1c-1.3.1-2.2.3-2.2 1.4v29.9h-.1zm-96.2 0c0 .7.2 1.3 2.2 1.4v.9H62.7v-.9c2-.2 2.2-.7 2.2-1.4V323H44.4v14.6c0 .7.2 1.3 2.2 1.4v.9H30.4v-.9c2-.2 2.2-.7 2.2-1.4v-36.8c0-.7-.2-1.3-2.2-1.4v-.9h16.2v.9c-2 .2-2.2.7-2.2 1.4v12.5h20.5v-12.5c0-.7-.2-1.3-2.2-1.4v-.9h16.2v.9c-2 .2-2.2.7-2.2 1.4v36.8zm34.9-10.3l-6.6-13.8-6.5 13.8h13.1zm3.9 12.7v-.9c.3 0 1 0 1-.7 0-.9-1.7-3.9-2.3-5.4H96c-.5 1.4-2.3 4.5-2.3 5.4 0 .7.7.7 1 .7v.9H82.9v-.9c.6 0 1.3-.2 1.6-.8 6.3-14.8 13.6-30.1 13.6-31.3 0-.6-.2-.7-1-.8v-.9h16.5v.9c-.8.1-1 .2-1 .8 0 1 11 23.1 14.5 31.3.2.6.9.8 1.6.8v.9h-13.2z"/><path class="st5" d="M33.6 295.3l-3.2 3.2h16.2l3.2-3.2H33.6zm32.3 0l-3.2 3.2h16.2l3.2-3.2H65.9z"/><path class="st6" d="M46.6 298.5v.9l3.2-3.1v-1l-3.2 3.2zm32.3 0v.9l3.2-3.1v-1l-3.2 3.2z"/><path class="st5" d="M100.2 302.1l-3.1 3.2h16.5l3.1-3.2h-16.5z"/><path class="st6" d="M113.6 305.3v.9l3.1-3.2v-.9l-3.1 3.2z"/><path class="st5" d="M164.4 302.1l-3.2 3.2h13.9l3.1-3.2h-13.8z"/><path class="st6" d="M175.1 305.3v.9l3.1-3.2v-.9l-3.1 3.2z"/><path class="st3" d="M184 327.9l3.2-3.2 1 .5-.8 2.7-1.4 3.4-1.6-.9-.4-2.5z"/><path class="st5" d="M185 313.4c0-4.9 4.6-11.8 17.5-11.8 7.5 0 13.9 2.1 15.7 2.1.9 0 1.3-.6 1.7-.9l.9.3-4.7 9.9-1-.5c0-.2.1-.6.1-.9 0-.8-5.6-2.9-10.9-2.9"/><path class="st3" d="M216.7 305.9l3.2-3.2.8.3-4.7 10-3.2 3.2 2-4.8 1.9-5.5z"/><path class="st4" d="M216.7 305.9l3.2-3.2.8.3-4.7 10-3.2 3.2 2-4.8 1.9-5.5z"/><path class="st7" d="M184 327.9l1 .5c0 .2-.1.5-.1.9 0 2.1 9.1 4.1 15.4 4.1 2 0 7.2-.3 7.2-3.4 0-6.2-25.8-.2-25.8-13.4 0-4.9 4.6-11.8 17.5-11.8 7.5 0 13.9 2.1 15.7 2.1.9 0 1.3-.6 1.7-.9l.9.3-4.7 9.9-1-.5c0-.2.1-.6.1-.9 0-.8-5.6-2.9-10.9-2.9-2 0-9 0-9 3.5 0 5.6 25.8-.2 25.8 13.6 0 6.2-5.3 11.5-17.3 11.5-7.6 0-16.4-2.8-17-2.8-.7 0-1.3.6-1.8 1.1l-.9-.2 3.2-10.7z"/><path class="st5" d="M241.9 301.8l-3.1 3.2h15.6l3.1-3.2h-15.6zm21.5 0l-3.1 3.2h17.1l3.1-3.2h-17.1zm27.5 0l-3.1 3.2H305l3.1-3.2h-17.2z"/><path class="st3" d="M305 339.7l3.1-3.1v-1l-5.9-.1.2 2.6 2.5 1.4"/><path class="st6" d="M277.4 305v1l3.1-3.2v-1l-3.1 3.2zm27.6 0v1l3.1-3.2v-1L305 305zm-50.6 0v1l3.1-3.2v-1l-3.1 3.2z"/><path class="st3" d="M256.5 335.9l-6.6-.2 1 3 3.5 1 3.1-3.1v-1l-1 .3zm17.8 0l-5.4-.2.6 3.1 3.2.9 3.1-3.1v-1l-1.5.3z"/><path class="st6" d="M283 332.9l-1 4.9 3.2-2.2-.7-4.8-1.5 2.1z"/><path class="st7" d="M270.4 337.4c0 1.1.9 1.3 2.2 1.4v1h-12.4v-1c.9-.1 1.8-.3 1.8-1.4v-30c0-1.1-.9-1.3-1.8-1.4v-1h17.1v1c-.8.1-1.5.2-1.5.6 0 .8 5.8 12.2 6.5 13.8 2.5-5.1 6.9-12.8 6.9-13.8 0-.5-.7-.6-1.5-.6v-1H305v1c-.7.1-1.7.3-1.7 1.4v30c0 1.1.9 1.3 1.7 1.4v1h-13.2v-1c1.1-.1 2.1-.3 2.1-1.4V315h-.2L282 337.8 270.7 315h-.2l-.1 22.4zm-16-32.4v.9c-1.6.1-2.5.3-2.5 1.4v30c0 1.1.9 1.3 2.5 1.4v.9h-15.6v-.9c1.6-.1 2.5-.3 2.5-1.4v-30c0-1.1-.9-1.3-2.5-1.4v-.9h15.6z"/><path class="st5" d="M290.6 365.3l-3.1 3.2h15.3l3.2-3.2h-15.4zm-26.4 0l-3.1 3.2h14.7l3.2-3.2h-14.8z"/><path class="st3" d="M272.2 399.7l.2 1.8 3.4 1.7 3.2-3.2v-.9l-6.8.6zm29.6-.6l-3.1.1.4 2.4 3.7 1.6 3.2-3.2v-.9h-4.2z"/><path class="st8" d="M286.7 402.2l.7.5 3.6-.1-1.1-3.5-3.2 3.1zm-25.6 0l.4.4 2.9-.3-.2-3.2-3.1 3.1z"/><path class="st6" d="M275.8 368.5v.9l3.2-3.1v-1l-3.2 3.2zm27 0v.9l3.2-3.1v-1l-3.2 3.2z"/><path class="st7" d="M286.7 403.2v-.9c.7 0 2.2-.2 2.2-1.3 0-.9-7.3-11-8.5-13.2l-6.9 6.6v6.5c0 1.2 1.2 1.3 2.2 1.4v.9H261v-.9c.9.1 2-.3 2-1.4v-30c0-1.1-1-1.5-2-1.4v-1h14.7v.9c-1 .1-2.2.2-2.2 1.4v14.5c4.7-4.1 15.8-13.6 15.8-14.5 0-1.2-1.2-1.3-2-1.4v-.9h15.4v.9c-3 .4-11 9-14.9 12.2l13.1 19.4c.6.9 1.1 1.1 1.8 1.2v.9l-16 .1z"/><path class="st9" d="M248.7 388.4l3.1-3.1 7.5 10.8-3.1 3.1-7.5-10.8z"/><path class="st8" d="M251 385.8l-3.2 3.2.9-.6 3.1-3.1-.8.5z"/><path class="st5" d="M216.5 382.7c0-12.9 11.5-17.8 23-17.8 3.5 0 6.9.7 9.5 1.3 2.7.6 4.8 1.3 5.7 1.3.5 0 .9-.4 1.2-.7l.9.3-5.7 11.5-1.1-.6c.1-.4.3-.8.3-1.3 0-1.3-5.7-3.6-10.9-3.6-3.1 0-6.5.8-9 2.5l-13.9 7.1z"/><path class="st7" d="M253.6 370.3l-5.7 11.5-1.1-.6c.1-.4.3-.8.3-1.3 0-1.3-5.7-3.5-10.9-3.5-5.9 0-12.8 2.8-12.8 9.5s6.9 9.5 12.8 9.5c6.3 0 11.6-3.8 11.6-4.9 0-.6 0-.9-.1-1.4l.9-.6 7.5 10.8-1 .6c-.4-.5-.8-.9-1.3-.9-.8 0-7.6 4.7-17.7 4.7-11.5 0-23-4.9-23-17.8s11.5-17.8 23-17.8c3.5 0 6.9.7 9.5 1.3 2.7.6 4.8 1.3 5.7 1.3.6 0 .9-.4 1.2-.7l1.1.3z"/><path class="st6" d="M248 381.8l5.6-11.5 3.2-3.2-5.7 11.5-3.1 3.2z"/><path class="st10" d="M252.7 370l.9.3 3.2-3.2-.9-.3-3.2 3.2z"/><path class="st5" d="M177.6 351.1l-3.1 3.2h10l3.2-3.2h-10.1zm15.5 0l-3.2 3.2H200l3.2-3.2h-10.1z"/><path class="st6" d="M184.5 354.3v9.1l3.2-3.1v-9.2l-3.2 3.2zm15.5 0v9.1l3.2-3.1v-9.2l-3.2 3.2z"/><path class="st7" d="M189.9 354.3H200v9.2h-10.1v-9.2zm-15.4 0h10.1v9.2h-10.1v-9.2zm-5.7 16.5c0-1.1-1-1.3-2.3-1.4v-1h14.2v1c-.5.1-1.3.3-1.3 1.4V390c0 4 3.3 5.6 7.9 5.6 4.6 0 7.9-1.6 7.9-5.6v-19.2c0-1.1-.9-1.3-1.3-1.4v-1H208v1c-1.3.1-2.3.3-2.3 1.4v17.4c0 8.4-4.6 15.5-18.4 15.5-13.9 0-18.4-7.1-18.4-15.5v-17.4h-.1z"/><path class="st5" d="M169.7 365.3l-3.2 3.2h14.2l3.1-3.2h-14.1zm27.2 0l-3.1 3.2H208l3.1-3.2h-14.2z"/><path class="st6" d="M180.7 368.5v.9l3.1-3.1v-1l-3.1 3.2zm27.3 0v.9l3.1-3.1v-1l-3.1 3.2zm-65.9 0v.9l3.1-3.1v-1l-3.1 3.2z"/><path class="st8" d="M127.3 402.2l1.2.4 1.3-.6.7-2v-.9l-3.2 3.1z"/><path class="st6" d="M166.2 390l-3.2 3.2.5 11.9.5.1 3.1-3.2v-12h-.9z"/><path class="st7" d="M129.5 370.8c0-1.1-.9-1.3-2.1-1.4v-1h14.7v1c-1.1.1-2.1.3-2.1 1.4v24.3h21.6c.6 0 1.4-.3 1.4-2h.9v12h-.9c0-1.7-.8-2-1.4-2h-34.3v-.9c1.2-.1 2.1-.3 2.1-1.4l.1-30z"/><path class="st5" d="M130.5 365.3l-3.2 3.2h14.8l3.1-3.2h-14.7z"/><path class="st11" d="M107.8 375.6H79.7c-1.7 0-2.2 1.3-2.4 3.2h-1.9V362h1.9c.2 2.1.6 2.8 2.4 2.8h43v1.9c-1.9.2-2.5 1-2.5 2.7v26.2c0 1.4.3 2.7 1.9 2.7h.8v1.9c-14.2 7.9-31.4 11.8-50.8 11.8-26.3 0-51.3-13.9-51.3-42.5S45.7 327 72.1 327c10.4 0 15 .8 25.7 3.8 5.2 1.4 10.3 4.1 11.5 4.1.9 0 1.7-.6 2.2-1.3l1.9.6-9 18-1.9-1.1c.2-.3.3-.9.3-1.7 0-3-16.9-7.6-30-7.6-15 0-30.3 10.9-30.3 28s18.1 27.3 31.9 27.3c8.7 0 26.8-2.7 33.3-4.6v-16.9h.1z"/><path class="st12" d="M107.8 375.6H79.7c-1.7 0-2.2 1.3-2.4 3.2h-1.9V362h1.9c.2 2.1.6 2.8 2.4 2.8h43v1.9c-1.9.2-2.5 1-2.5 2.7v26.2c0 1.4.3 2.7 1.9 2.7h.8v1.9c-14.2 7.9-31.4 11.8-50.8 11.8-26.3 0-51.3-13.9-51.3-42.5S45.7 327 72.1 327c10.4 0 15 .8 25.7 3.8 5.2 1.4 10.3 4.1 11.5 4.1.9 0 1.7-.6 2.2-1.3l1.9.6-9 18-1.9-1.1c.2-.3.3-.9.3-1.7 0-3-16.9-7.6-30-7.6-15 0-30.3 10.9-30.3 28s18.1 27.3 31.9 27.3c8.7 0 26.8-2.7 33.3-4.6v-16.9h.1z"/><path class="st13" d="M75.5 362l-3.2 3.1h1.9l3.2-3.1h-1.9z"/><path class="st14" d="M72.3 365.1l3.2-3.1h1.9l-3.2 3.1h-1.9z"/><path class="st15" d="M119.6 368v1.9l3.2-3.2v-1.9l-3.2 3.2z"/><path class="st16" d="M119.6 368l3.2-3.2v1.9l-3.2 3.2V368z"/><path class="st15" d="M119.7 401.5v1.8l3.2-3.1v-1.9l-3.2 3.2z"/><path class="st16" d="M119.7 401.4l3.2-3.1v1.9l-3.2 3.1v-1.9z"/><path class="st17" d="M101.3 355.5l9-18 3.2-3.2-9 18-3.2 3.2z"/><path class="st14" d="M101.3 355.5l9-18 3.2-3.2-9 18-3.2 3.2z"/><path class="st13" d="M119 368.5l-43.4-.3c-.2 0-.4-.1-.5-.3-.1-.2 0-.4.1-.6l3.1-2.9c.1-.1.2-.1.4-.1h43.5c.2 0 .4.1.5.3.1.2 0 .4-.1.6l-3.2 3.2c-.2 0-.3.1-.4.1zm-42.1-1.3l41.9.3 2.1-2.1h-42l-2 1.8z"/><path class="st18" d="M104.6 378.8h-28c-1.7 0-2.2 1.3-2.4 3.2h-1.9v-16.8h1.9c.2 2.1.6 2.8 2.4 2.8h43v1.9c-1.9.2-2.5.9-2.5 2.7v26.2c0 1.4.3 2.7 1.9 2.7h.8v1.9c-14.2 7.9-31.4 11.8-50.8 11.8-26.3 0-51.3-13.9-51.3-42.5s24.9-42.5 51.3-42.5c10.4 0 15 .8 25.7 3.8 5.2 1.4 10.2 4.1 11.5 4.1.9 0 1.7-.6 2.2-1.3l1.9.6-9 18-1.9-1.1c.2-.3.3-.9.3-1.7 0-3-16.9-7.6-30-7.6-15 0-30.3 10.9-30.3 28s18.1 27.3 31.9 27.3c8.7 0 26.8-2.7 33.3-4.6v-16.9z"/><path class="st7" d="M69 415.7c-13.8 0-26.6-3.8-35.8-10.6-10.4-7.7-16-18.9-16-32.4 0-13.4 5.5-24.6 16-32.4 9.3-6.9 22-10.6 35.8-10.6 10.6 0 15.3.9 25.8 3.8 2.8.8 5.6 1.9 7.8 2.8 1.6.7 3.1 1.3 3.6 1.3.9 0 1.6-.7 1.8-1.1.1-.2.4-.2.6-.2l1.9.6c.1 0 .3.2.3.3.1.1.1.3 0 .4l-9 18-.3.3h-.4l-1.9-1.1c-.2-.1-.3-.4-.2-.7.1-.2.3-.7.3-1.5 0-2.4-15.9-7.1-29.5-7.1-14.3 0-29.8 10.5-29.8 27.4 0 11 11.2 26.8 31.3 26.8 8.3 0 26-2.6 32.8-4.5v-16.1H76.6c-1.2 0-1.7.7-1.9 2.7 0 .3-.2.5-.5.5h-1.9c-.3 0-.5-.2-.5-.5V365c0-.3.2-.5.5-.5h1.9c.3 0 .5.2.5.5.2 2 .6 2.4 1.9 2.4h43c.3 0 .5.2.5.5v1.9c0 .3-.2.5-.5.5-1.6.1-2.1.6-2.1 2.2v26.2c0 1.8.6 2.2 1.4 2.2h.8c.3 0 .5.2.5.5v1.9c0 .2-.1.4-.3.4-14.1 8-31.3 12-50.9 12zm0-85c-35.1 0-50.7 21.1-50.7 42s15.7 42 50.7 42c19.4 0 36.3-3.9 50.3-11.6V402h-.3c-1.6 0-2.4-1.1-2.4-3.2v-26.3c0-1.9.8-2.9 2.5-3.1v-.9H76.6c-2 0-2.6-1-2.8-2.8h-.9v15.8h.9c.2-1.6.8-3.2 2.8-3.2h28.1c.3 0 .5.2.5.5v17c0 .2-.2.4-.4.5-6.6 1.9-24.7 4.6-33.4 4.6-13.2 0-32.4-9.9-32.4-27.8 0-17.6 16-28.5 30.8-28.5 12 0 30.5 4.3 30.5 8.1 0 .6-.1 1.1-.2 1.5l1 .6 8.5-17-1-.3c-.4.5-1.3 1.2-2.4 1.2-.7 0-1.8-.5-4-1.4s-4.9-2-7.7-2.8c-10.4-2.9-15-3.8-25.5-3.8z"/><path class="st7" d="M83.8 340c0-2.1 1.7-3.8 3.8-3.8 2.1 0 3.8 1.7 3.8 3.8 0 2.1-1.7 3.8-3.8 3.8-2.1.1-3.8-1.7-3.8-3.8m-30.2-.5c0-2.1 1.7-3.8 3.8-3.8 2.1 0 3.8 1.7 3.8 3.8 0 2.1-1.7 3.8-3.8 3.8-2 .1-3.8-1.7-3.8-3.8m-24.4 17.4c0-2.1 1.7-3.8 3.8-3.8s3.8 1.7 3.8 3.8c0 2.1-1.7 3.8-3.8 3.8s-3.8-1.7-3.8-3.8m.2 30c0-2.1 1.7-3.8 3.8-3.8s3.8 1.7 3.8 3.8c0 2.1-1.7 3.8-3.8 3.8s-3.8-1.7-3.8-3.8m23 18.9c0-2.1 1.7-3.8 3.8-3.8 2.1 0 3.8 1.7 3.8 3.8 0 2.1-1.7 3.8-3.8 3.8-2.1 0-3.8-1.7-3.8-3.8m32.8.5c0-2.1 1.7-3.8 3.8-3.8 2.1 0 3.8 1.7 3.8 3.8 0 2.1-1.7 3.8-3.8 3.8-2.1 0-3.8-1.7-3.8-3.8"/><g class="st19"><path class="st7" d="M241.7 287.3L12.5 243.6v19.2l187.8 24.5h41.4z"/></g><g class="st19"><path class="st7" d="M284.3 287.3L12.5 188.2v21.1l261.4 78h10.4z"/></g><g class="st19"><path class="st7" d="M299.3 286.5L12.5 124.4v24.9l283.2 137.9c1-.1 2.2-.3 3.6-.7z"/></g><g class="st19"><path class="st7" d="M305.8 283.9L12.5 44.9v31.8L303.8 285c.7-.4 1.4-.7 2-1.1z"/></g><g class="st19"><path class="st7" d="M310.3 280.4L78.2 11.6H42.9l265.9 270.2c.5-.4 1-.9 1.5-1.4z"/></g><g class="st19"><path class="st7" d="M313.7 275L158.8 11.6h-27.6l181.4 265.8c.4-.8.8-1.5 1.1-2.4z"/></g><g class="st19"><path class="st7" d="M315.5 265.4v-3.9l-90-249.9H202l113.3 257.3c.2-1.1.2-2.3.2-3.5z"/></g><g class="st19"><path class="st7" d="M315.5 206.3L284.9 11.6h-21.4l52 225.8v-31.1z"/></g><g><path class="st7" d="M290.6 284.6H37.5c-17.4 0-21.9-14.4-21.9-22V36.3c0-11.2 5.8-16.6 10.7-19.1 5.3-2.7 10.6-2.8 11.2-2.8v.9-.9h253.1c11.2 0 16.6 5.8 19.1 10.8 2.7 5.3 2.8 10.6 2.8 11.2v226.3c0 11.2-5.8 16.6-10.7 19.1-5.3 2.7-10.6 2.8-11.2 2.8zM37.5 18c-.2 0-5 0-9.5 2.4-5.8 3-8.8 8.4-8.8 15.9v226.3c0 .7.2 18.3 18.3 18.3h253.1c.2 0 4.9-.1 9.5-2.4 5.8-3 8.8-8.4 8.8-15.9V36.3c0-.2-.1-5-2.4-9.5-3-5.8-8.4-8.8-15.9-8.8H37.5z"/></g><g><path class="st20" d="M58.8 49.5l.2.2s1.1 2.9 2.2 3.8l.5.2c.3.9-.2 2.2 0 3.1.1.5.9 1.3 1 1.7.4 2.2-1.1 3.6-1.4 5.7.1 0 1.1.1 1.4.2 1.3-1.6 2-3.6 3.3-5.3 1.2-1.4 4.3-1.8 5-3.6.8-2-.6-4.3 0-6.7 0-.1.6-.9.7-1 .8-.7 2.4-1.5 4.1-1.2 1.1.2 1.9 1.4 3.8 1 .1 0 1.1-.6 1.2-.7.6-.8.1-1.9.5-3.1.4-1.4 3.4-3.4 4.5-4.3.5-.4.9-.4 1.4-.7 0 0 1.6.2 1.9.2 3.2.3 9.7-4.7 8.6-8.4-.2-.5-1-1.9-1.4-2.2-2.2-1.1-4.7 1.2-7.2.2-2.8-1.2-3.7-5.7-8.1-5.3-2.9.3-11.2 2.9-13.6 4.3-2.8 1.6-5 4.8-7.4 6.9-.8.7-2.2 1.4-2.6 2.4-.8 2 .3 4.7.2 6.7-.1 1.5-.8 2.7-1 4.5.6.7 1.7.9 2.2 1.4zm33.9 0c-.4-1.6 3.5-5.9-1.2-5.3-.9.1-2.2 1-2.9 1.4-5.4 3.3 1.7 8 6 8.8.3-3-1.5-3.1-1.9-4.9zm-.5 10.2c-2.6-.6-3.9-1.2-5.7-2.4-.2.5-1 .9-.7 2.2.2 1.1 8.1 7.1 6.4.2zM91 65.5c-.9-.5-2.1-.4-3.1-.7-2.4-.8-6.5-3.5-9.3-3.1-1.1.1-2.8 2-3.8 2.6.7 2.9 3 2.1 3.8 4.3 1.2 3.3.3 6.8 2.6 8.8.5-1.8-.1-6.4 1-8.4l.5-.2c1.8-1.6 6.5 2 9.3-1.4-.4-1-.2-1.5-1-1.9z"/><path class="st20" d="M302 136.9l.2-1c-.3-.9-.5-1.8-1-2.6-3.2-5.8-6.4-2.1-12.4-3.1-8.3-1.3-15.8-4-14.3-14.6.4-2.6 1.9-5.1 2.4-7.6.9-4.9 1.2-23.5-1.4-24.9-4.9-2.5-3.8 6.5-4.8 9.1-.6 1.5-2.5 3.5-3.6 4.8-2 2.4-4.3 4.8-6.4 7.2-1.5 1.7-3.5 1.2-6.7 1.4-2 .1-5.3 1.1-7.4.2-3.4-1.4-4.5-5.4-6.4-8.4-1.3-1.9-3.6-3.3-4.5-5.5-.7-1.6-.5-3.7-1.4-5-.3-.5-1.3-1-2.1-1-2.6.2-3.7 4-4.8 6-1.7 3.1-5.2 4.7-6.7 7.9-1.6 3.4-.8 9.2-2.6 12.4-2.1 3.8-13.2 8-20.3 6.7-3.4-.6-6.7-4-9.8-5.5-4.5-2.3-8.7-5.5-13.1-7.9-5.3-2.9-10.7-5.7-15.5-9.1.1-.9.9-2.2.7-3.3-.1-.5-1.1-1.2-1.2-1.7-.7-3.1 2.1-5.9-.2-9.8-.8-1.3-2.3-.6-3.6-1.4-.6-.4-.8-2.3-1.2-2.9-2.1-3.4-4.1.9-5.5 1.2-.6.1-1.2-.7-2.4-.5-2.6.5-11.9 6.9-13.1 9.1-1 1.8-1.8 3.4-2.4 5.5 3.8.6 15.5-9.9 17.9-13.1 1.8 1.7 1.2 3.4 1 6.5 1 .6 3 .9 4.1 1.7 1.2 1 2.1 9 1.7 10.5 2.6 2.6 6.3 4.2 9.5 6.2 5.6 3.4 11.1 7 16.7 10.5 1.6 1 8.9 6.1 4.3 7.6-10.3 3.4-19.6-3.8-26.7-6-3.6-1.1-8.4-.5-11.7-2.2-1.3-.6-1.5-3-2.6-3.8-1.4-1-11.5-6.2-12.9-6.2-1.8 0-1 2.4-2.1 3.1-2.6 1.6-6.7 2.4-10 2.9 1.1-.9 9.6-6 9.8-6.2 1.3-2.1-1.2-8.4-2.1-9.8-.9-1.3-2.7-1.1-4.8-1-2.4.2-5.5 1.4-8.1 1-1.8-.3-3.6-2.2-5-3.1-5.9-3.6-11.6-8.4-18.4-10.8-3.2-1.1-7.2-1-9.5-2.9-1.1.6-2.6 1.6-4.1 1-1.3-.6-1.7-3-2.9-3.8-2.2-1.4-11.6-3.7-15.3-3.1-4.2.7-6.5 7.2-7.6 11-7.5 24.6 4.4 34.8 21 42.3 7.6 3.4 15.2 6.8 23.6 9.8 3.8 1.4 6.4 1.4 6 6.7-9.3 3.2-17.4 6.2-24.6 11.5-4.1 3.1-12.9 8.2-16.1 14.8l-1.9 8.8c-1 0-2-.1-2.9-.5-1.1-.5-2-1.1-2.8-1.6.6-.3 1.1-.6 1.6-.9 2.8-2 4.5-5.3 4.7-9 .5-9.3-5.3-15.2-10.9-16.8-2.7-.7-5.4-.2-7.7 1.4-2.9 2-4.7 5.6-5 9.7-.2 2.4.2 4.8 1 7-2.6-1.7-5.1-4.3-5.5-8-1-7.8 5.8-11.7 6.1-11.9.5-.3.7-.9.4-1.4-.2-.5-.8-.7-1.4-.5-.4.2-10.6 4.3-10.8 13.8-.2 9.7 8.7 16.3 17.5 17h.8c1.3 1.6 4.7 5.4 9.1 7.5 1.9.9 3.7 1.1 5.3 1.1-.5 10.2-1.4 19.4 5.4 25.1 3 2.6 22.5 16.9 22.9 19.1.4 2.5-3.7 11.6-4.8 12.2-1.4.7-3.1-.4-4.5.2-.9.4-1.2 1.7-1.7 2.6-.9 1.8-1.4 4.7-2.6 6.5-3.5 5.1-20.5 5.3-24.1 9.6-2.4 2.8 2.2 3.9.5 7.4-1 1.9-7.7 8.3-5.2 10 2 1.4 7.1-.7 9.3-1.2 4.4-1 8.4-1.7 12.4-3.3 2.5-1 4.5-3.1 6.9-4.1 1.4-.6 2.9-.4 4.5-.7 3.1-.6 6.7-2.3 8.8-4.1 1.5-1.2 2.3-3.3 3.6-4.8 3.3-4 8.8-8.1 13.4-10.8 6.1-3.6 15.1-5.4 22.4-7.2 2.9-.7 5.6-.9 8.1-2.1 3.6-1.7 3.3-9 7.6-10 1.2-.3 2.6.1 3.8 0 6.7-.5 14.3-1 20-2.6 2.9-.8 5.9-2.9 8.4-4.3 5.2-2.9 10.9-5 16.7-7.2 2.4-.9 4.7-2.6 7.4-3.3 5.9-1.6 17.2-1.9 21.7 1 1.9 1.2 3.7 3.7 6 4.3 4 1.1 8.2.5 12.4 1.4 4.9 1 12 2.9 16 5.3 3.5 2.1 6.3 5.3 9.3 7.9 1 .8 2.2 1.2 3.1 2.1 2 2.2 3.8 5.5 8.6 3.6.7-.3 1.1-1.5 1.9-1.7 1.9-.4 2.4 1.1 4.5.7 2.1-.4 4.2-2.9 6.7-3.3 3.6-.6 6.5 1.6 10.3.7 1.2-.3 2.7-2.3 2.1-4.3-.3-1.3-2.5-2.2-3.6-2.9-2.9-1.8-9.6-6.6-12.6-7.4-5.4-1.4-11.6-.6-15.8-3.1-9.9-6-16.2-16.9-26.2-22.7-1.3-.8-3.6-1.2-3.3-3.3.3-2.3 3.7-4.7 4.8-6.7.6-1.2 1.2-2.1 1.9-3.2.8-1.3 3.7-3.7 3.9-3.8 1.9-1.3 3.5-3.3 5.5-4.5 4.2-2.5 9.9-4 15.2-5.6 5-1.6 9.6-2.5 13.1-4.6 4.2-2.4 7.1-5.1 11-8.2 2.1-1.7 2.9-3.5 4.3-6 .9-1.7 1.7-2.4 2.1-4.8-4.8 1.4-5.8 2.3-10-.2-1-.6-1.9-.7-2.4-1.7-3.7-7 7.8-10.1 10.7-5.5.9 1.5 1 2 2.4 3zM47.7 168c-3-.8-4.8-4-4.5-8 .2-2.4 1-4.3 2.3-5.2.5-.4 1.1-.5 1.7-.5.3 0 .6 0 1 .1 3.2.9 5 5.4 4.8 9-.1 1.9-.8 3.4-1.9 4.2-1 .6-2.2.7-3.4.4zm91.5 40.8c-.3 3.3.7 5.7.5 8.8-2.5-4-.7-8.1-4.8-11.2-7.9-6.1-27.6-11.9-31.5-20.3 6.2 2.9 11.5 7.4 17.9 10.3 4.9 2.2 11.7 2.5 16.5 5 .8.4 2.2 1.2 2.4 2.2.2 1.5-.8 3.7-1 5.2zm104.3-97.2c-2.8-1.8-4.2-6.3-4.8-10.3 2.5 2.4 5.9 5.8 4.8 10.3zm-20.5-9.8c.6-2.5 2.2-4.9 3.8-6.5.3.1 1.3.2 1.4.2-.5 1.9-6.9 13.6-5.2 6.3zm19.8 61.2c-4.5-3-9.9-5.1-12.6-9.8-1.7-2.9-4.6-14.8-5-18.4 0-.3.2-1.4.2-1.4 1.9 2.8 2.1 6.7 3.6 10.3 1.8 4.4 5.4 8 7.9 11.7 1 1.6 1.4 3.4 2.9 4.5 1.5 1.2 3.5 2 5 3.1s1.9 1.5 2.4 3.1c-2.4-.8-2.7-2-4.4-3.1zm8.3-31.1c1.1-.3 2.8-.9 3.3-1.7v-.5c.3.1.4-1.1-1.2-1s-3.7 2.3-2.4-.5c.5-1.1.8-1.7 1.7-2.4 1.9.8 3.6 1.6 5.3 2.6-2.1 1.7-2.6 4.3-6.7 3.5zm19.6-21.7c-1.7-.7-2.9-1.2-4.5-1.9-2.9-1.3-1.8-3.2-.7-5.7 1.2-3 3.3-5.3 5.5-7.4 4.3 1.4.6 11.5-.3 15z"/><path class="st20" d="M150.2 92.5c-.2-1.2-3.9-2.8-5.5-2.6-2.7.3-3 4.5-5 5.5-3.1 1.5-4.3-4.2-7.2.2-.1-.4-.2.2-.2.2.5 1.3.6 1.7 1.4 2.6 1.6 1.8-.1 6.3 2.9 6.2 3-.1 13-3.2 13.8-5 .7-1.4-.5-2.5-.7-3.6-.3-1.5.7-2.4.5-3.5z"/><ellipse class="st20" cx="293.3" cy="137.2" rx="1.1" ry="1.5"/><ellipse class="st20" cx="297.9" cy="137.1" rx="1" ry="1.4"/></g><g><path class="st21" d="M309.6 0H22S0 0 0 22v160.2c41.1-82 169.7-145.8 331.3-163.4-.9-6-4.9-18.8-21.7-18.8z"/><path class="st22" d="M22 428.4h287.8s22 0 22-22v-90.9C263.4 361.6 167 390.4 60 390.4c-20.4 0-40.5-1.1-60-3.2v19.2s0 22 22 22z"/></g></svg>
